<svg width="52" height="52" viewBox="0 0 52 52" fill="none" xmlns="http://www.w3.org/2000/svg">
<rect width="52" height="52" rx="26" fill="#141414"/>
<path d="M34.4701 16.0001H17.5301C17.3396 15.9975 17.1506 16.0324 16.9736 16.1028C16.7967 16.1733 16.6354 16.2779 16.4989 16.4107C16.3624 16.5434 16.2533 16.7018 16.1781 16.8767C16.1028 17.0517 16.0627 17.2397 16.0601 17.4301V34.5701C16.0627 34.7606 16.1028 34.9486 16.1781 35.1235C16.2533 35.2985 16.3624 35.4568 16.4989 35.5896C16.6354 35.7224 16.7967 35.827 16.9736 35.8975C17.1506 35.9679 17.3396 36.0028 17.5301 36.0001H34.4701C34.6605 36.0028 34.8496 35.9679 35.0265 35.8975C35.2034 35.827 35.3648 35.7224 35.5013 35.5896C35.6378 35.4568 35.7468 35.2985 35.8221 35.1235C35.8974 34.9486 35.9375 34.7606 35.9401 34.5701V17.4301C35.9375 17.2397 35.8974 17.0517 35.8221 16.8767C35.7468 16.7018 35.6378 16.5434 35.5013 16.4107C35.3648 16.2779 35.2034 16.1733 35.0265 16.1028C34.8496 16.0324 34.6605 15.9975 34.4701 16.0001ZM22.0901 32.7401H19.0901V23.7401H22.0901V32.7401ZM20.5901 22.4801C20.1763 22.4801 19.7795 22.3158 19.487 22.0232C19.1944 21.7307 19.0301 21.3339 19.0301 20.9201C19.0301 20.5064 19.1944 20.1096 19.487 19.8171C19.7795 19.5245 20.1763 19.3601 20.5901 19.3601C20.8098 19.3352 21.0322 19.357 21.2429 19.424C21.4536 19.4911 21.6478 19.6018 21.8127 19.7491C21.9776 19.8964 22.1096 20.0768 22.1999 20.2786C22.2903 20.4804 22.337 20.699 22.337 20.9201C22.337 21.1412 22.2903 21.3599 22.1999 21.5617C22.1096 21.7635 21.9776 21.9439 21.8127 22.0912C21.6478 22.2385 21.4536 22.3492 21.2429 22.4163C21.0322 22.4833 20.8098 22.5051 20.5901 22.4801ZM32.9101 32.7401H29.9101V27.9101C29.9101 26.7001 29.4801 25.9101 28.3901 25.9101C28.0527 25.9126 27.7242 26.0184 27.4489 26.2133C27.1735 26.4082 26.9645 26.6828 26.8501 27.0001C26.7718 27.2352 26.7379 27.4827 26.7501 27.7301V32.7301H23.7501C23.7501 32.7301 23.7501 24.5501 23.7501 23.7301H26.7501V25.0001C27.0226 24.5272 27.419 24.1377 27.8965 23.8733C28.374 23.609 28.9146 23.48 29.4601 23.5001C31.4601 23.5001 32.9101 24.7901 32.9101 27.5601V32.7401Z" fill="white"/>
</svg>
