<svg width="52" height="52" viewBox="0 0 52 52" fill="none" xmlns="http://www.w3.org/2000/svg">
<rect width="52" height="52" rx="26" fill="#141414"/>
<path d="M37 23.71C37.0495 22.2786 36.7365 20.858 36.09 19.58C35.6514 19.0556 35.0427 18.7017 34.37 18.58C31.5875 18.3275 28.7936 18.224 26 18.27C23.2167 18.2219 20.4327 18.3221 17.66 18.57C17.1118 18.6697 16.6045 18.9268 16.2 19.31C15.3 20.14 15.2 21.56 15.1 22.76C14.9549 24.9175 14.9549 27.0824 15.1 29.24C15.129 29.9154 15.2295 30.5858 15.4 31.24C15.5206 31.745 15.7645 32.2123 16.11 32.6C16.5173 33.0034 17.0364 33.2752 17.6 33.38C19.7559 33.6461 21.9282 33.7564 24.1 33.71C27.6 33.76 30.67 33.71 34.3 33.43C34.8775 33.3316 35.4112 33.0595 35.83 32.65C36.11 32.3699 36.3191 32.0271 36.44 31.65C36.7977 30.5526 36.9733 29.4041 36.96 28.25C37 27.69 37 24.31 37 23.71ZM23.74 28.85V22.66L29.66 25.77C28 26.69 25.81 27.73 23.74 28.85Z" fill="white"/>
</svg>
