<svg width="52" height="52" viewBox="0 0 52 52" fill="none" xmlns="http://www.w3.org/2000/svg">
<rect width="52" height="52" rx="26" fill="#141414"/>
<path d="M36 19.8002C35.2483 20.1263 34.4534 20.3419 33.64 20.4402C34.4982 19.9275 35.1413 19.121 35.45 18.1702C34.6436 18.6503 33.7608 18.9885 32.84 19.1702C32.2245 18.5028 31.405 18.0585 30.5098 17.9071C29.6147 17.7556 28.6945 17.9056 27.8938 18.3334C27.093 18.7612 26.4569 19.4427 26.0852 20.271C25.7135 21.0994 25.6273 22.0276 25.84 22.9102C24.2094 22.8277 22.6144 22.4032 21.1587 21.6641C19.7029 20.925 18.4188 19.8879 17.39 18.6202C17.0291 19.2504 16.8395 19.964 16.84 20.6902C16.8387 21.3646 17.0042 22.0288 17.3218 22.6238C17.6393 23.2187 18.099 23.7259 18.66 24.1002C18.008 24.0825 17.3699 23.9075 16.8 23.5902V23.6402C16.8049 24.5851 17.136 25.4993 17.7373 26.2282C18.3386 26.957 19.1733 27.4559 20.1 27.6402C19.7433 27.7488 19.3729 27.806 19 27.8102C18.7419 27.8072 18.4844 27.7838 18.23 27.7402C18.4939 28.553 19.0046 29.2634 19.6911 29.7724C20.3775 30.2814 21.2056 30.5638 22.06 30.5802C20.6172 31.7155 18.8359 32.3351 17 32.3402C16.6657 32.3413 16.3317 32.3213 16 32.2802C17.8744 33.4905 20.0588 34.1329 22.29 34.1302C23.8297 34.1462 25.3571 33.8552 26.7831 33.2743C28.2091 32.6934 29.505 31.8341 30.5952 30.7467C31.6854 29.6593 32.548 28.3656 33.1326 26.9411C33.7172 25.5166 34.012 23.9899 34 22.4502C34 22.2802 34 22.1002 34 21.9202C34.7847 21.335 35.4615 20.6176 36 19.8002Z" fill="white"/>
</svg>
