<svg width="24" height="24" viewBox="0 0 24 24" fill="none" xmlns="http://www.w3.org/2000/svg">
<g clip-path="url(#clip0_1_147)">
<path d="M12.0118 19.4597C9.0136 19.4597 6.01618 19.4597 3.01797 19.4597C2.71484 19.4597 2.57469 19.5984 2.57469 19.8977C2.57469 19.9752 2.57863 20.0527 2.57391 20.1295C2.56761 20.2225 2.55816 20.3155 2.54084 20.4062C2.47628 20.7372 2.15898 21.0023 1.77948 20.9984C1.3984 20.9946 1.08268 20.7116 1.0252 20.3481C1.01181 20.2628 1.00473 20.1752 1.00473 20.0891C1.00394 18.3279 0.992131 16.5659 1.00867 14.8046C1.01811 13.7783 1.39761 12.8853 2.12512 12.1419C2.56682 11.6907 3.09198 11.3698 3.69273 11.1651C4.16513 11.0046 4.65329 10.9558 5.15089 10.9558C9.76237 10.9574 14.3738 10.9535 18.9853 10.9589C20.3364 10.9605 21.4308 11.4969 22.2418 12.5636C22.6402 13.0884 22.878 13.6845 22.9591 14.3357C22.9866 14.555 22.9984 14.7783 22.9992 15C23.0024 16.7101 23.0016 18.4202 23.0008 20.1302C23.0008 20.3977 22.9339 20.6411 22.7103 20.8178C22.4741 21.0046 22.2103 21.0535 21.9292 20.9395C21.6599 20.8295 21.4899 20.6271 21.4513 20.338C21.4316 20.1922 21.434 20.0426 21.43 19.8953C21.4237 19.6574 21.3237 19.5139 21.1238 19.4698C21.0797 19.4597 21.0332 19.4605 20.9875 19.4605C17.9964 19.4605 15.0053 19.4605 12.0134 19.4605L12.0118 19.4597Z" fill="white"/>
<path d="M11.9024 4C13.8471 4 15.7911 4 17.735 4C18.3862 4 18.9948 4.14341 19.5199 4.53953C20.1955 5.04884 20.5899 5.71938 20.623 6.56124C20.6513 7.27519 20.6388 7.9907 20.6419 8.70543C20.6443 9.16589 20.6419 9.62636 20.6419 10.0868C20.6419 10.1279 20.6395 10.1713 20.6285 10.2109C20.5947 10.3357 20.5262 10.3853 20.397 10.3612C20.2561 10.3349 20.1199 10.2783 19.979 10.2628C19.6475 10.2271 19.3152 10.2023 18.9822 10.1853C18.7601 10.1736 18.6916 10.1341 18.6602 9.91938C18.5594 9.23876 17.9193 8.62636 17.1004 8.63566C16.1871 8.64574 15.2738 8.63798 14.3612 8.63798C13.6818 8.63798 13.1015 9.03643 12.8708 9.66434C12.8377 9.75426 12.8251 9.85194 12.8078 9.94651C12.7755 10.1163 12.7118 10.1798 12.5401 10.1822C12.1803 10.186 11.8197 10.186 11.4599 10.1822C11.2945 10.1806 11.2292 10.1163 11.1993 9.92791C11.1575 9.66357 11.0536 9.42791 10.8835 9.22093C10.5757 8.84574 10.1773 8.64186 9.68599 8.63953C8.74354 8.63488 7.80109 8.63721 6.85785 8.63876C6.06578 8.63953 5.44614 9.24884 5.34536 9.91783C5.31308 10.1341 5.24773 10.1721 5.0257 10.186C4.65801 10.2101 4.29032 10.2442 3.92342 10.2829C3.81082 10.2946 3.70296 10.3426 3.59116 10.3612C3.47069 10.3806 3.41479 10.3403 3.38093 10.224C3.36755 10.1783 3.36125 10.1295 3.36125 10.0814C3.36046 8.97674 3.3455 7.87209 3.3644 6.76744C3.38408 5.61163 3.92656 4.76202 4.98791 4.24806C5.40835 4.04574 5.86422 4 6.3256 4C8.18453 4 10.0434 4 11.9024 4Z" fill="white"/>
</g>
<defs>
<clipPath id="clip0_1_147">
<rect width="22" height="17" fill="white" transform="translate(1 4)"/>
</clipPath>
</defs>
</svg>
