<svg width="24" height="24" viewBox="0 0 24 24" fill="none" xmlns="http://www.w3.org/2000/svg">
<g clip-path="url(#clip0_1_153)">
<path d="M2.26958 15.7615H12.1102V17.5696H18.2616V15.7654H20.7055C20.8638 17.9157 20.8763 19.8303 18.6708 21.2896C18.6439 21.3074 18.6222 21.3317 18.5624 21.3849C18.8337 21.6101 19.101 21.8328 19.3657 22.0528C19.0084 22.3943 18.7214 22.6689 18.3923 22.9841C18.102 22.6846 17.7881 22.3372 17.4459 22.0206C17.3454 21.9274 17.1674 21.8893 17.0216 21.8801C16.7832 21.8656 16.5415 21.9044 16.3011 21.905C13.1059 21.907 9.9106 21.9063 6.71469 21.9063C6.56166 21.9063 6.39812 21.9359 6.25691 21.8932C5.83066 21.7651 5.56006 21.9628 5.30654 22.2682C5.09046 22.5283 4.84417 22.7628 4.61889 23.0005C4.3148 22.6807 4.03961 22.3917 3.73486 22.0705C3.93912 21.8899 4.19855 21.66 4.49016 21.4013C4.28919 21.2574 4.13878 21.1576 3.99626 21.0473C2.92833 20.2243 2.35102 19.1327 2.27549 17.7922C2.23805 17.1282 2.26892 16.4603 2.26892 15.7615H2.26958Z" fill="white"/>
<path d="M2.27548 10.7872C2.27023 10.6683 2.26103 10.5613 2.26103 10.4542C2.26038 8.71375 2.25841 6.97393 2.26103 5.23345C2.26366 3.3209 3.59102 1.98631 5.50095 2.00011C6.14197 2.0047 6.80269 1.99157 7.41875 2.13672C8.51164 2.39483 9.19995 3.15276 9.53228 4.22069C9.59665 4.42824 9.68006 4.52872 9.90796 4.59046C11.1939 4.93921 12.0964 6.14113 12.1128 7.48228C12.1154 7.69836 12.1128 7.91444 12.1128 8.14891H6.02572C5.73542 6.61401 6.56953 5.02985 8.31329 4.53529C8.15567 3.85027 7.48115 3.2723 6.77314 3.24734C6.23786 3.22829 5.70061 3.22632 5.16533 3.24734C4.24255 3.28346 3.50038 4.13071 3.49644 5.14676C3.48987 6.89774 3.49447 8.64938 3.49447 10.4004C3.49447 10.5199 3.49447 10.6394 3.49447 10.7866H2.27417L2.27548 10.7872Z" fill="white"/>
<path d="M12.0931 14.5328C11.9644 14.5328 11.8678 14.5328 11.7713 14.5328C8.64366 14.5328 5.5154 14.5335 2.38779 14.5321C1.71459 14.5321 1.23054 14.2136 1.06043 13.6698C0.804289 12.8514 1.38423 12.0633 2.26826 12.0515C3.20877 12.039 4.14929 12.0482 5.0898 12.0482C7.29922 12.0482 9.50799 12.0482 11.7174 12.0482C11.8356 12.0482 11.9538 12.0482 12.0931 12.0482V14.5321V14.5328Z" fill="white"/>
<path d="M17.0236 16.371H13.3633C13.3574 16.2554 13.3475 16.1503 13.3475 16.0452C13.3462 14.777 13.3462 13.5081 13.3475 12.2398C13.3482 11.3223 13.8493 10.8179 14.7629 10.8139C15.1018 10.8126 15.4407 10.8054 15.7796 10.8159C16.5408 10.8402 17.038 11.3519 17.04 12.115C17.0439 13.4385 17.0413 14.7612 17.04 16.0846C17.04 16.1707 17.0308 16.2561 17.0236 16.371Z" fill="white"/>
<path d="M18.2833 14.521V12.0482C18.8783 12.0482 19.4648 12.0462 20.0507 12.0489C20.3561 12.0502 20.668 12.0252 20.9669 12.0745C21.6191 12.1822 22.0434 12.7162 22.0164 13.3395C21.9902 13.9509 21.5389 14.4757 20.8986 14.5092C20.0395 14.5545 19.1765 14.5204 18.2839 14.5204L18.2833 14.521Z" fill="white"/>
</g>
<defs>
<clipPath id="clip0_1_153">
<rect width="21.0171" height="21" fill="white" transform="translate(1 2)"/>
</clipPath>
</defs>
</svg>
