<svg width="82" height="82" viewBox="0 0 82 82" fill="none" xmlns="http://www.w3.org/2000/svg">
<rect x="0.5" y="0.5" width="81" height="81" rx="40.5" stroke="url(#paint0_linear_1_986)"/>
<rect x="0.5" y="0.5" width="81" height="81" rx="40.5" stroke="url(#paint1_linear_1_986)"/>
<rect x="10.5" y="10.5" width="61" height="61" rx="30.5" stroke="url(#paint2_linear_1_986)"/>
<rect x="10.5" y="10.5" width="61" height="61" rx="30.5" stroke="url(#paint3_linear_1_986)"/>
<path fill-rule="evenodd" clip-rule="evenodd" d="M25.7 28.675C25.7 27.9709 26.2708 27.4 26.975 27.4H44.825C45.5291 27.4 46.1 27.9709 46.1 28.675C46.1 29.3792 45.5291 29.95 44.825 29.95H44.4V53.325C44.4 54.0292 43.8291 54.6 43.125 54.6H40.575C39.8708 54.6 39.3 54.0292 39.3 53.325V49.075C39.3 48.3709 38.7291 47.8 38.025 47.8H33.775C33.0708 47.8 32.5 48.3709 32.5 49.075V53.325C32.5 54.0292 31.9291 54.6 31.225 54.6H26.975C26.2708 54.6 25.7 54.0292 25.7 53.325C25.7 52.6209 26.2708 52.05 26.975 52.05H27.4V29.95H26.975C26.2708 29.95 25.7 29.3792 25.7 28.675ZM30.8 33.35C30.8 32.8806 31.1805 32.5 31.65 32.5H33.35C33.8194 32.5 34.2 32.8806 34.2 33.35V35.05C34.2 35.5195 33.8194 35.9 33.35 35.9H31.65C31.1805 35.9 30.8 35.5195 30.8 35.05V33.35ZM31.65 39.3C31.1805 39.3 30.8 39.6806 30.8 40.15V41.85C30.8 42.3195 31.1805 42.7 31.65 42.7H33.35C33.8194 42.7 34.2 42.3195 34.2 41.85V40.15C34.2 39.6806 33.8194 39.3 33.35 39.3H31.65ZM37.6 33.35C37.6 32.8806 37.9805 32.5 38.45 32.5H40.15C40.6194 32.5 41 32.8806 41 33.35V35.05C41 35.5195 40.6194 35.9 40.15 35.9H38.45C37.9805 35.9 37.6 35.5195 37.6 35.05V33.35ZM38.45 39.3C37.9805 39.3 37.6 39.6806 37.6 40.15V41.85C37.6 42.3195 37.9805 42.7 38.45 42.7H40.15C40.6194 42.7 41 42.3195 41 41.85V40.15C41 39.6806 40.6194 39.3 40.15 39.3H38.45Z" fill="#A685FA"/>
<path fill-rule="evenodd" clip-rule="evenodd" d="M48.225 34.2C47.5208 34.2 46.95 34.7709 46.95 35.475V52.9C46.95 53.8389 47.7111 54.6 48.65 54.6H55.025C55.7291 54.6 56.3 54.0292 56.3 53.325C56.3 52.6209 55.7291 52.05 55.025 52.05H54.6V36.75H55.025C55.7291 36.75 56.3 36.1792 56.3 35.475C56.3 34.7709 55.7291 34.2 55.025 34.2H48.225ZM49.075 40.15C49.075 39.6806 49.4555 39.3 49.925 39.3H51.625C52.0944 39.3 52.475 39.6806 52.475 40.15V41.85C52.475 42.3195 52.0944 42.7 51.625 42.7H49.925C49.4555 42.7 49.075 42.3195 49.075 41.85V40.15ZM49.925 46.1C49.4555 46.1 49.075 46.4806 49.075 46.95V48.65C49.075 49.1195 49.4555 49.5 49.925 49.5H51.625C52.0944 49.5 52.475 49.1195 52.475 48.65V46.95C52.475 46.4806 52.0944 46.1 51.625 46.1H49.925Z" fill="#A685FA"/>
<defs>
<linearGradient id="paint0_linear_1_986" x1="6.75" y1="86.5" x2="85.75" y2="-5.5" gradientUnits="userSpaceOnUse">
<stop stop-color="#A685FA"/>
<stop offset="0.323723" stop-color="#A685FA" stop-opacity="0"/>
</linearGradient>
<linearGradient id="paint1_linear_1_986" x1="81.75" y1="-10.5" x2="6.75" y2="82" gradientUnits="userSpaceOnUse">
<stop stop-color="#A685FA"/>
<stop offset="0.576615" stop-color="#A685FA" stop-opacity="0"/>
</linearGradient>
<linearGradient id="paint2_linear_1_986" x1="3.25" y1="13.5" x2="71.75" y2="72" gradientUnits="userSpaceOnUse">
<stop stop-color="#A685FA"/>
<stop offset="0.323723" stop-color="#A685FA" stop-opacity="0"/>
</linearGradient>
<linearGradient id="paint3_linear_1_986" x1="84.25" y1="86" x2="12.25" y2="35" gradientUnits="userSpaceOnUse">
<stop stop-color="#A685FA"/>
<stop offset="0.576615" stop-color="#A685FA" stop-opacity="0"/>
</linearGradient>
</defs>
</svg>
