<svg width="24" height="24" viewBox="0 0 24 24" fill="none" xmlns="http://www.w3.org/2000/svg">
<path d="M19.5004 2.3999C19.9972 2.40011 20.3998 2.80337 20.3998 3.30029C20.3996 3.79704 19.9971 4.1995 19.5004 4.19971H19.1996V19.8003H19.5004C19.9972 19.8005 20.3997 20.2029 20.3998 20.6997C20.3998 21.1966 19.9972 21.5999 19.5004 21.6001H15.3002C14.8031 21.6001 14.3998 21.1968 14.3998 20.6997V17.6997C14.3997 17.2029 13.9972 16.8005 13.5004 16.8003H10.5004C10.0034 16.8003 9.60008 17.2027 9.59998 17.6997V20.6997C9.59998 21.1968 9.19664 21.6001 8.69958 21.6001H4.50037C4.00331 21.6001 3.59998 21.1968 3.59998 20.6997C3.60008 20.2027 4.00338 19.8003 4.50037 19.8003H4.80017V4.19971H4.50037C4.00344 4.19971 3.60019 3.79717 3.59998 3.30029C3.59998 2.80324 4.00331 2.3999 4.50037 2.3999H19.5004ZM9.00037 10.8003C8.669 10.8003 8.39978 11.0685 8.39978 11.3999V12.6001C8.39989 12.9314 8.66906 13.1997 9.00037 13.1997H10.1996C10.5309 13.1997 10.8001 12.9314 10.8002 12.6001V11.3999C10.8002 11.0685 10.531 10.8003 10.1996 10.8003H9.00037ZM13.8002 10.8003C13.4688 10.8003 13.1996 11.0685 13.1996 11.3999V12.6001C13.1997 12.9314 13.4689 13.1997 13.8002 13.1997H15.0004C15.3315 13.1995 15.5999 12.9312 15.6 12.6001V11.3999C15.6 11.0687 15.3316 10.8005 15.0004 10.8003H13.8002ZM9.00037 5.99951C8.669 5.99951 8.39978 6.26873 8.39978 6.6001V7.80029C8.39999 8.13148 8.66913 8.3999 9.00037 8.3999H10.1996C10.5308 8.3999 10.8 8.13148 10.8002 7.80029V6.6001C10.8002 6.26873 10.531 5.99951 10.1996 5.99951H9.00037ZM13.8002 5.99951C13.4688 5.99951 13.1996 6.26873 13.1996 6.6001V7.80029C13.1998 8.13148 13.4689 8.3999 13.8002 8.3999H15.0004C15.3314 8.39969 15.5998 8.13135 15.6 7.80029V6.6001C15.6 6.26886 15.3316 5.99972 15.0004 5.99951H13.8002Z" fill="white"/>
</svg>
